<svg class="gourmet-word-mark" viewBox="948.855 1817.809 1982.461 348.812" role="img" aria-label="DadaGourmet" xmlns="http://www.w3.org/2000/svg"><title>DadaGourmet</title><path fill-rule="nonzero" fill="currentColor" d="M 1054.648438 1965.539062 C 1076.578125 1965.539062 1091.199219 1982.464844 1091.199219 2002.46875 C 1091.199219 2022.859375 1076.578125 2039.398438 1054.648438 2039.398438 C 1032.722656 2039.398438 1018.101562 2022.859375 1018.101562 2002.46875 C 1018.101562 1982.464844 1032.722656 1965.539062 1054.648438 1965.539062 M 1054.648438 2104.414062 C 1116.203125 2104.414062 1160.445312 2061.710938 1160.445312 2002.851562 L 1160.445312 1817.808594 L 1091.199219 1817.808594 L 1091.199219 1911.292969 C 1079.265625 1904.753906 1065.039062 1900.523438 1050.800781 1900.523438 C 989.636719 1900.523438 948.855469 1941.300781 948.855469 2002.851562 C 948.855469 2058.632812 994.636719 2104.414062 1054.648438 2104.414062  M 1268.167969 1965.152344 C 1290.101562 1965.152344 1304.722656 1982.078125 1304.722656 2002.46875 C 1304.722656 2022.472656 1290.101562 2039.402344 1268.167969 2039.402344 C 1246.242188 2039.402344 1231.625 2022.472656 1231.625 2002.46875 C 1231.625 1982.078125 1246.242188 1965.152344 1268.167969 1965.152344 M 1256.628906 2104.414062 C 1278.945312 2104.414062 1296.257812 2097.105469 1308.566406 2084.410156 L 1308.566406 2098.644531 L 1373.96875 2098.644531 L 1373.96875 2002.082031 C 1373.96875 1943.222656 1329.726562 1900.136719 1268.167969 1900.136719 C 1208.160156 1900.136719 1162.378906 1946.300781 1162.378906 2002.082031 C 1162.378906 2058.25 1200.464844 2104.414062 1256.628906 2104.414062  M 1481.691406 1965.539062 C 1503.625 1965.539062 1518.242188 1982.464844 1518.242188 2002.46875 C 1518.242188 2022.859375 1503.625 2039.398438 1481.691406 2039.398438 C 1459.765625 2039.398438 1445.148438 2022.859375 1445.148438 2002.46875 C 1445.148438 1982.464844 1459.765625 1965.539062 1481.691406 1965.539062 M 1481.691406 2104.414062 C 1543.246094 2104.414062 1587.492188 2061.710938 1587.492188 2002.851562 L 1587.492188 1817.808594 L 1518.242188 1817.808594 L 1518.242188 1911.292969 C 1506.316406 1904.753906 1492.085938 1900.523438 1477.847656 1900.523438 C 1416.679688 1900.523438 1375.902344 1941.300781 1375.902344 2002.851562 C 1375.902344 2058.632812 1421.683594 2104.414062 1481.691406 2104.414062  M 1695.214844 1965.152344 C 1717.148438 1965.152344 1731.769531 1982.078125 1731.769531 2002.46875 C 1731.769531 2022.472656 1717.148438 2039.402344 1695.214844 2039.402344 C 1673.292969 2039.402344 1658.667969 2022.472656 1658.667969 2002.46875 C 1658.667969 1982.078125 1673.292969 1965.152344 1695.214844 1965.152344 M 1683.675781 2104.414062 C 1705.988281 2104.414062 1723.304688 2097.105469 1735.613281 2084.410156 L 1735.613281 2098.644531 L 1801.011719 2098.644531 L 1801.011719 2002.082031 C 1801.011719 1943.222656 1756.769531 1900.136719 1695.214844 1900.136719 C 1635.207031 1900.136719 1589.425781 1946.300781 1589.425781 2002.082031 C 1589.425781 2058.25 1627.507812 2104.414062 1683.675781 2104.414062  M 1920.078125 2084.046875 C 1937.285156 2084.046875 1951.984375 2078.105469 1963.867188 2066.21875 C 1975.753906 2054.023438 1981.695312 2039.320312 1981.695312 2022.117188 C 1981.695312 2004.914062 1975.753906 1990.214844 1963.867188 1978.328125 C 1951.984375 1966.128906 1937.285156 1960.1875 1920.078125 1960.1875 C 1902.875 1960.1875 1888.175781 1966.128906 1876.292969 1978.328125 C 1864.40625 1990.214844 1858.464844 2004.914062 1858.464844 2022.117188 C 1858.464844 2039.320312 1864.40625 2054.023438 1876.292969 2066.21875 C 1888.175781 2078.105469 1902.875 2084.046875 1920.078125 2084.046875 M 1981.695312 1943.925781 L 2002.339844 1943.925781 L 2002.339844 2094.058594 C 2002.339844 2116.574219 1994.519531 2134.40625 1979.195312 2147.226562 C 1963.867188 2160.054688 1945.414062 2166.621094 1923.832031 2166.621094 C 1887.238281 2166.621094 1862.53125 2153.796875 1849.707031 2128.460938 L 1867.847656 2118.140625 C 1877.230469 2137.21875 1895.996094 2146.601562 1923.832031 2146.601562 C 1959.800781 2146.601562 1981.695312 2126.273438 1981.695312 2094.058594 L 1981.695312 2069.660156 C 1967.308594 2092.492188 1946.355469 2104.066406 1918.515625 2104.066406 C 1896.308594 2104.066406 1877.230469 2096.246094 1861.277344 2080.292969 C 1845.640625 2064.34375 1837.820312 2044.949219 1837.820312 2022.117188 C 1837.820312 1999.285156 1845.640625 1979.894531 1861.277344 1963.941406 C 1877.230469 1947.992188 1896.308594 1940.171875 1918.515625 1940.171875 C 1946.355469 1940.171875 1967.308594 1951.746094 1981.695312 1974.574219 Z M 1981.695312 1943.925781  M 2101.804688 2084.046875 C 2119.007812 2084.046875 2133.710938 2078.105469 2145.59375 2066.21875 C 2157.480469 2054.023438 2163.425781 2039.320312 2163.425781 2022.117188 C 2163.425781 2004.914062 2157.480469 1990.214844 2145.59375 1978.328125 C 2133.710938 1966.128906 2119.007812 1960.1875 2101.804688 1960.1875 C 2084.605469 1960.1875 2069.902344 1966.128906 2058.015625 1978.328125 C 2046.132812 1990.214844 2040.1875 2004.914062 2040.1875 2022.117188 C 2040.1875 2039.320312 2046.132812 2054.023438 2058.015625 2066.21875 C 2069.902344 2078.105469 2084.605469 2084.046875 2101.804688 2084.046875 M 2101.804688 2104.066406 C 2078.972656 2104.066406 2059.269531 2096.246094 2043.316406 2080.605469 C 2027.367188 2064.65625 2019.546875 2045.261719 2019.546875 2022.117188 C 2019.546875 1998.972656 2027.367188 1979.582031 2043.316406 1963.941406 C 2059.269531 1947.992188 2078.972656 1940.171875 2101.804688 1940.171875 C 2124.640625 1940.171875 2144.03125 1947.992188 2159.980469 1963.941406 C 2175.933594 1979.582031 2184.066406 1998.972656 2184.066406 2022.117188 C 2184.066406 2045.261719 2175.933594 2064.65625 2159.980469 2080.605469 C 2144.03125 2096.246094 2124.640625 2104.066406 2101.804688 2104.066406  M 2311.371094 1943.925781 L 2332.015625 1943.925781 L 2332.015625 2100.3125 L 2311.371094 2100.3125 L 2311.371094 2075.917969 C 2299.796875 2094.683594 2282.28125 2104.066406 2258.824219 2104.066406 C 2220.980469 2104.066406 2197.519531 2079.042969 2197.519531 2039.945312 L 2197.519531 1943.925781 L 2218.164062 1943.925781 L 2218.164062 2039.945312 C 2218.164062 2067.785156 2233.488281 2084.046875 2260.699219 2084.046875 C 2290.726562 2084.046875 2311.371094 2065.59375 2311.371094 2025.871094 Z M 2311.371094 1943.925781  M 2379.25 1969.886719 C 2388.945312 1950.804688 2405.207031 1941.421875 2428.667969 1941.421875 L 2428.667969 1961.4375 C 2400.203125 1961.4375 2379.25 1977.390625 2379.25 2013.359375 L 2379.25 2100.3125 L 2358.605469 2100.3125 L 2358.605469 1943.925781 L 2379.25 1943.925781 Z M 2379.25 1969.886719  M 2664.816406 2002.726562 L 2664.816406 2100.3125 L 2644.171875 2100.3125 L 2644.171875 2002.726562 C 2644.171875 1975.511719 2628.847656 1960.1875 2606.011719 1960.1875 C 2580.054688 1960.1875 2562.539062 1977.078125 2562.539062 2013.671875 L 2562.539062 2100.3125 L 2541.894531 2100.3125 L 2541.894531 2002.726562 C 2541.894531 1975.203125 2527.820312 1960.1875 2505.300781 1960.1875 C 2480.277344 1960.1875 2460.257812 1977.390625 2460.257812 2013.671875 L 2460.257812 2100.3125 L 2439.617188 2100.3125 L 2439.617188 1943.925781 L 2460.257812 1943.925781 L 2460.257812 1966.757812 C 2471.519531 1948.929688 2487.472656 1940.171875 2508.113281 1940.171875 C 2530.636719 1940.171875 2546.585938 1949.554688 2555.65625 1968.632812 C 2566.917969 1949.554688 2583.808594 1940.171875 2606.328125 1940.171875 C 2641.355469 1940.171875 2664.816406 1964.253906 2664.816406 2002.726562  M 2699.542969 2012.421875 L 2816.207031 2012.421875 C 2814.015625 1995.847656 2807.761719 1983.023438 2797.125 1973.949219 C 2786.492188 1964.878906 2773.980469 1960.1875 2759.90625 1960.1875 C 2727.378906 1960.1875 2703.609375 1981.457031 2699.542969 2012.421875 M 2815.894531 1964.878906 C 2830.28125 1981.144531 2837.476562 2000.535156 2837.476562 2022.742188 C 2837.476562 2024.933594 2837.164062 2028.375 2836.851562 2032.4375 L 2699.542969 2032.4375 C 2703.609375 2064.03125 2728.316406 2084.046875 2761.785156 2084.046875 C 2785.554688 2084.046875 2803.382812 2073.414062 2812.140625 2057.460938 L 2830.28125 2068.097656 C 2816.519531 2090.304688 2791.808594 2104.066406 2761.472656 2104.066406 C 2736.761719 2104.066406 2716.746094 2096.246094 2701.417969 2080.921875 C 2686.089844 2065.59375 2678.269531 2045.890625 2678.269531 2022.117188 C 2678.269531 1998.660156 2685.78125 1979.269531 2701.105469 1963.628906 C 2716.429688 1947.992188 2735.824219 1940.171875 2759.90625 1940.171875 C 2783.050781 1940.171875 2801.820312 1948.304688 2815.894531 1964.878906  M 2931.316406 1963.941406 L 2886.273438 1963.941406 L 2886.273438 2058.710938 C 2886.273438 2085.609375 2901.289062 2083.421875 2931.316406 2082.171875 L 2931.316406 2100.3125 C 2887.527344 2106.882812 2865.628906 2094.996094 2865.628906 2058.710938 L 2865.628906 1963.941406 L 2832.789062 1963.941406 L 2832.789062 1943.925781 L 2865.628906 1943.925781 L 2865.628906 1906.390625 L 2886.273438 1900.136719 L 2886.273438 1943.925781 L 2931.316406 1943.925781 Z M 2931.316406 1963.941406 "/></svg>
